<?xml version="1.0" encoding="UTF-8" standalone="no"?>
<!-- Created with Inkscape (http://www.inkscape.org/) -->
<svg xmlns="http://www.w3.org/2000/svg" height="287.98" width="294.05" version="1.1"><path fill="#004e86" d="m151.3 0.053395c-30.06-0.81354-60.323 7.6917-85.379 24l5.1008 1.6154-11.099 84.474 42.41-76.397 31.547 10.615 7.8475 129 79.652-116.92 23.856 4.846s31.504 84.458 35 143.46c9.0081-18.906 13.757-39.748 13.812-60.615 0.009-37.034-15.23-73.859-41.552-100.43-26.322-26.567-63.428-42.573-101.19-43.649zm-100.92 35.769c-31.447 26.886-50.295 67.398-50.381 108.31 0.0126 21.2 4.8765 42.38 14.125 61.54 14.414-45.16 36.202-121.31 36.255-169.84zm177.59 67.076c-28.21 43.847-52.93 83.928-89.304 131.61l-32.655-9.876-3.6787-120.66c-16.525 15.231-53.156 99.227-67.488 133 15.453 17.899 35.436 32.013 57.648 40.718 22.213 8.7049 46.614 11.984 70.397 9.4611 23.783-2.5231 46.904-10.844 66.702-24.006s36.237-31.139 47.426-51.865c-15.95-9.0262-34.548-68.641-49.047-108.38z"/></svg>
